# xmcd
#
# Track frame offsets:
#	150
#	23325
#	39927
#	59947
#	78000
#	97587
#	114765
#	133292
#	151605
#	170907
#	191205
#	213497
#
# Disc length: 3066 seconds
#
# Revision: 1
# Processed by: cddbd v1.5.2PL0 Copyright (c) Steve Scherf et al.
# Submitted via: audiograbber 1.83.01
#
DISCID=930bf80c
DTITLE=Richard Burr - Mile After Mile
DYEAR=1998
DGENRE=Country
TTITLE0=Place In The Promisedland
TTITLE1=All I Ever Wanted
TTITLE2=47 Miles
TTITLE3=Kindness In The World
TTITLE4=Walk In His Shoes
TTITLE5=The River Knows
TTITLE6=Carter Lee and Brenda Rose
TTITLE7=Before I Go
TTITLE8=Jenny Dreams
TTITLE9=Parting Sands
TTITLE10=You Move Me
TTITLE11=Whispers In The Dark
EXTD=
EXTT0=
EXTT1=
EXTT2=
EXTT3=
EXTT4=
EXTT5=
EXTT6=
EXTT7=
EXTT8=
EXTT9=
EXTT10=
EXTT11=
PLAYORDER=
